<svg width="451" height="42" viewBox="0 0 451 42" fill="none" xmlns="http://www.w3.org/2000/svg">
<path d="M147.518 39.0002C144.335 39.0002 142.05 36.627 142.05 33.6936V33.6641C142.05 30.7308 144.364 28.3281 147.548 28.3281C150.732 28.3281 153.017 30.7013 153.017 33.6347V33.6641C153.017 36.5975 150.702 39.0002 147.518 39.0002ZM147.548 36.907C149.376 36.907 150.643 35.4625 150.643 33.6936V33.6641C150.643 31.8953 149.346 30.4213 147.518 30.4213C145.691 30.4213 144.423 31.8658 144.423 33.6347V33.6641C144.423 35.433 145.72 36.907 147.548 36.907Z" fill="#20424F"/>
<path d="M137.658 38.8231V28.5049H139.928V38.8231H137.658Z" fill="#20424F"/>
<path d="M125.91 38.8231V28.5049H128.003L132.838 34.858V28.5049H135.078V38.8231H133.147L128.15 32.2637V38.8231H125.91Z" fill="#20424F"/>
<path d="M118.398 39.0002C115.214 39.0002 112.929 36.627 112.929 33.6936V33.6641C112.929 30.7308 115.243 28.3281 118.427 28.3281C121.611 28.3281 123.896 30.7013 123.896 33.6347V33.6641C123.896 36.5975 121.582 39.0002 118.398 39.0002ZM118.427 36.907C120.255 36.907 121.523 35.4625 121.523 33.6936V33.6641C121.523 31.8953 120.226 30.4213 118.398 30.4213C116.57 30.4213 115.302 31.8658 115.302 33.6347V33.6641C115.302 35.433 116.6 36.907 118.427 36.907Z" fill="#20424F"/>
<path d="M106.795 39.0002C103.581 39.0002 101.37 36.7596 101.37 33.6936V33.6641C101.37 30.7308 103.655 28.3281 106.78 28.3281C108.622 28.3281 109.772 28.8293 110.833 29.7432L109.404 31.4678C108.622 30.8045 107.885 30.4213 106.706 30.4213C105.055 30.4213 103.743 31.8806 103.743 33.6347V33.6641C103.743 35.5509 105.04 36.9365 106.868 36.9365C107.708 36.9365 108.431 36.7301 109.006 36.3174V34.8434H106.721V32.8829H111.202V37.364C110.141 38.2631 108.681 39.0002 106.795 39.0002Z" fill="#20424F"/>
<path d="M92.5591 38.8231V28.5049H94.8291V38.8231H92.5591Z" fill="#20424F"/>
<path d="M79.6587 38.8231V28.5049H82.1056L84.8178 32.868L87.5301 28.5049H89.977V38.8231H87.7217V32.0868L84.8178 36.4942H84.7589L81.8845 32.131V38.8231H79.6587Z" fill="#20424F"/>
<path d="M72.8213 38.9853C70.0501 38.9853 68.355 37.4523 68.355 34.401V28.5049H70.625V34.3421C70.625 36.0372 71.4505 36.8922 72.8508 36.8922C74.2511 36.8922 75.0766 36.0667 75.0766 34.4158V28.5049H77.3466V34.3273C77.3466 37.4523 75.5925 38.9853 72.8213 38.9853Z" fill="#20424F"/>
<path d="M61.3619 38.8231V30.598H58.2222V28.5049H66.7716V30.598H63.6319V38.8231H61.3619Z" fill="#20424F"/>
<path d="M47.7534 38.8234L52.1755 28.4314H54.2687L58.6908 38.8234H56.3176L55.3742 36.5091H51.011L50.0677 38.8234H47.7534ZM51.8218 34.5044H54.5635L53.1926 31.1584L51.8218 34.5044Z" fill="#20424F"/>
<path d="M38 38.8231V28.5049H42.7906C43.9846 28.5049 44.8838 28.8144 45.4881 29.4188C45.9598 29.8905 46.1957 30.4801 46.1957 31.1729V31.2024C46.1957 32.3521 45.5766 33.0449 44.8395 33.4282C46.0335 33.8851 46.7705 34.5927 46.7705 35.9635V35.993C46.7705 37.8798 45.2375 38.8231 42.9085 38.8231H38ZM43.9404 31.5856V31.5561C43.9404 30.8633 43.4097 30.4948 42.4516 30.4948H40.2111V32.6764H42.3042C43.3065 32.6764 43.9404 32.3521 43.9404 31.5856ZM44.5152 35.7129V35.6834C44.5152 34.9906 44.0141 34.5632 42.8348 34.5632H40.2111V36.8332H42.9085C43.9109 36.8332 44.5152 36.4794 44.5152 35.7129Z" fill="#20424F"/>
<path d="M248.311 6.24222C248.492 6.24222 248.589 6.14903 248.589 6.01624C248.589 5.87179 248.492 5.78793 248.311 5.78793H247.985V6.24222H248.311ZM247.469 5.33363H248.342C248.788 5.33363 249.106 5.53166 249.106 5.97547C249.106 6.27483 248.956 6.48218 248.728 6.5742L249.165 7.237H248.569L248.204 6.66855H247.986V7.237H247.47V5.33363H247.469ZM249.749 6.31677V6.30512C249.749 5.42799 249.096 4.70345 248.222 4.70345C247.348 4.70345 246.697 5.43731 246.697 6.31677V6.32609C246.697 7.20438 247.349 7.92892 248.222 7.92892C249.095 7.92892 249.749 7.19506 249.749 6.31677ZM246.498 6.32609V6.31677C246.498 5.33363 247.263 4.50659 248.223 4.50659C249.183 4.50659 249.948 5.32315 249.948 6.30512V6.31677C249.948 7.29873 249.184 8.12461 248.223 8.12461C247.262 8.12461 246.498 7.30805 246.498 6.32492" fill="#20424F"/>
<path d="M231.483 4.51929H237.371C242.118 4.51929 245.397 7.91715 245.397 12.3482V12.3937C245.397 16.8271 242.118 20.2715 237.371 20.2715H231.483V4.51929ZM237.371 17.1416C240.088 17.1416 241.923 15.2289 241.923 12.4461V12.4007C241.923 9.61084 240.079 7.65389 237.371 7.65389H234.803V17.1497L237.371 17.1428V17.1416Z" fill="#20424F"/>
<path d="M214.539 4.51929H217.6L224.675 14.2155V4.51929H227.956V20.2715H225.132L217.819 10.2573V20.2715H214.54V4.51929H214.539Z" fill="#20424F"/>
<path d="M202.781 4.40186H205.853L212.307 20.2671H208.838L207.456 16.7318H201.071L199.692 20.2671H196.305L202.781 4.40186ZM206.285 13.6741L204.282 8.56503L202.274 13.6741H206.284H206.285Z" fill="#20424F"/>
<path d="M182.113 4.51929H189.016C190.935 4.51929 192.42 5.08307 193.415 6.11629C194.256 6.99343 194.705 8.23282 194.705 9.71684V9.76227C194.705 12.3051 193.389 13.8952 191.467 14.6465L195.155 20.282H191.278L188.046 15.2406H185.433V20.282H182.114V4.51929H182.113ZM188.797 12.1677C190.417 12.1677 191.342 11.2696 191.342 9.94049V9.89739C191.342 8.41105 190.352 7.64341 188.734 7.64341H185.432V12.1642L188.797 12.1677Z" fill="#20424F"/>
<path d="M164.643 12.4354V12.39C164.643 7.91347 167.987 4.24536 172.561 4.24536C175.277 4.24536 176.919 5.0095 178.491 6.40499L176.4 9.03522C175.233 8.02297 174.198 7.43705 172.452 7.43705C170.036 7.43705 168.114 9.66424 168.114 12.3411V12.3865C168.114 15.2683 170.012 17.3825 172.688 17.3825C173.896 17.3825 174.974 17.0669 175.823 16.4437V14.1862H172.476V11.1995H179.034V18.0383C177.258 19.6528 174.959 20.5428 172.579 20.5381C167.881 20.5381 164.643 17.0936 164.643 12.4342V12.4354Z" fill="#20424F"/>
<path d="M140.329 4.51929H143.91L147.879 11.1834L151.847 4.52395H155.428V20.2762H152.127V9.98592L147.885 16.7129H147.799L143.584 10.0558V20.2727H140.328V4.51929H140.329Z" fill="#20424F"/>
<path d="M128.572 4.40454H131.633L138.105 20.2698H134.631L133.251 16.7345H126.865L125.484 20.2698H122.101L128.572 4.40454ZM132.064 13.6767L130.061 8.56771L128.055 13.6767H132.064Z" fill="#20424F"/>
<path d="M107.102 4.51929H110.421V10.7512H116.549V4.51929H119.869V20.2715H116.549V13.9487H110.421V20.2715H107.102V4.51929Z" fill="#20424F"/>
<path d="M90.3477 4.51929H96.2354C100.983 4.51929 104.261 7.91715 104.261 12.3482V12.3937C104.261 16.8271 100.983 20.2715 96.2354 20.2715H90.3477V4.51929ZM96.2354 17.1416C98.9533 17.1416 100.786 15.2289 100.786 12.4461V12.4007C100.786 9.61084 98.9521 7.65389 96.2354 7.65389H93.6684V17.1497L96.2354 17.1428V17.1416Z" fill="#20424F"/>
<path d="M73.4102 4.51929H76.4735L83.5486 14.2155V4.51929H86.8271V20.2715H84.0005L76.6886 10.2573V20.2715H73.4102V4.51929Z" fill="#20424F"/>
<path d="M62.3239 14.0594L56.5186 4.51929H60.4021L64.0054 10.8421L67.6728 4.51929H71.4454L65.6424 14.0012V20.2809H62.3227V14.0594H62.3239Z" fill="#20424F"/>
<path d="M33.2513 4.51728H36.81L39.9443 15.1826L43.3303 4.47534H46.1592L49.5486 15.1826L52.6737 4.51728H56.1455L50.9819 20.3802H48.1015L44.6915 10.0748L41.2861 20.3848H38.3943L33.249 4.51611L33.2513 4.51728Z" fill="#20424F"/>
<path d="M0 0V24.2801H26.3122V0H0ZM11.0822 5.70892C11.1645 5.71475 11.2458 5.69262 11.3155 5.64719C11.3842 5.60176 11.4379 5.5342 11.4654 5.45499C11.6221 5.14863 11.8589 4.89353 12.1495 4.71414C12.4389 4.53592 12.7717 4.44157 13.1103 4.44157C13.4489 4.44157 13.7818 4.53592 14.0712 4.71414C14.3606 4.89236 14.5974 5.14863 14.7553 5.45499C14.7839 5.5342 14.8365 5.60176 14.9051 5.64719C14.9738 5.69262 15.0561 5.71475 15.1385 5.70892C16.0902 5.70892 16.8681 6.39968 16.8681 6.8097C16.8681 7.01239 16.7136 7.10674 16.4997 7.14635C15.7791 7.27215 15.3936 7.55637 14.8251 8.44865C14.2005 9.44459 13.3151 10.8378 13.2705 10.9111C13.1973 11.0206 13.1561 11.0311 13.1046 11.0311C13.0531 11.0311 13.0142 11.0195 12.9445 10.9111C12.8964 10.8378 12.0225 9.44459 11.3899 8.45098C10.8362 7.5622 10.437 7.27331 9.71521 7.14751C9.50359 7.10791 9.34688 7.01355 9.34688 6.81087C9.35374 6.39968 10.1362 5.71009 11.0822 5.71009V5.70892ZM8.04854 7.56802C8.96138 7.56802 9.92912 7.96756 10.7093 9.2058C11.1062 9.83365 12.4389 11.963 12.4594 12.0014C12.4823 12.0329 12.4938 12.0713 12.4949 12.1109C12.4938 12.1517 12.4812 12.1913 12.4583 12.2251C12.432 12.2624 11.3258 14.0341 11.2961 14.083C11.2824 14.1086 11.2606 14.1308 11.2355 14.1459C11.2103 14.1611 11.1817 14.1692 11.152 14.1692C11.1234 14.1692 11.0959 14.1611 11.0707 14.1448C11.0467 14.1296 11.0273 14.1063 11.0147 14.0807C10.9872 14.0411 8.88817 10.6094 8.46607 9.9082C8.04396 9.20813 7.49946 8.68511 6.63352 8.68511C6.44936 8.68511 6.3933 8.58959 6.3933 8.48243C6.3933 8.21801 6.83256 7.56802 8.04739 7.56802H8.04854ZM11.1977 19.1827C10.93 19.1827 10.6669 19.1128 10.4347 18.9777C10.2025 18.8426 10.0092 18.6481 9.87422 18.4128C9.87422 18.4128 6.30179 12.6444 5.81792 11.8721C5.17962 10.8238 4.96227 10.5174 4.38346 10.5174C4.15468 10.5174 4.1032 10.3881 4.1032 10.2681C4.1032 9.9315 4.63283 9.42246 5.59486 9.42246C6.32009 9.42246 7.1643 9.71134 7.89411 10.8972C7.89411 10.8972 9.67861 13.7604 11.0101 15.8827C11.0604 15.9631 11.1005 16.012 11.1794 16.012C11.2583 16.012 11.3144 15.9328 11.343 15.8827C11.9996 14.8157 15.103 9.83365 15.5034 9.20696C16.2835 7.96873 17.2478 7.56919 18.1641 7.56919C19.379 7.56919 19.8239 8.21917 19.8239 8.48359C19.8239 8.59076 19.7667 8.68628 19.5826 8.68628C18.7155 8.68628 18.1721 9.21046 17.7512 9.90937C17.3302 10.6083 12.8312 17.9189 12.5247 18.4163C12.3897 18.6527 12.1964 18.8484 11.963 18.9824C11.7296 19.1175 11.4654 19.1862 11.1977 19.1827ZM21.8486 10.5174C21.2698 10.5174 21.0536 10.8238 20.4142 11.8721C19.9406 12.6444 16.367 18.4128 16.367 18.4128C16.2321 18.6481 16.0387 18.8426 15.8065 18.9777C15.5743 19.1128 15.3112 19.1839 15.0447 19.1827C14.7999 19.1827 14.5585 19.1245 14.34 19.0127C14.1215 18.8997 13.9317 18.7366 13.7875 18.5351C13.7429 18.4885 13.7143 18.4291 13.704 18.3638C13.7143 18.2986 13.7429 18.238 13.7875 18.1891C13.8173 18.1379 18.3391 10.8972 18.3391 10.8972C19.077 9.71134 19.9154 9.42246 20.6384 9.42246C21.6004 9.42246 22.1301 9.9315 22.1301 10.2681C22.1301 10.3881 22.0763 10.5174 21.8498 10.5174H21.8486Z" fill="#20424F"/>
<path d="M262.169 0H259.169V42H262.169V0Z" fill="#20424F"/>
<path d="M435.865 29.8575V10.335H450.34V13.4028H439.296V18.4787H449.085V21.5465H439.296V26.7897H450.479V29.8575H435.865Z" fill="#20424F"/>
<path d="M418.598 29.8575V10.335H422.028V26.7339H432.291V29.8575H418.598Z" fill="#20424F"/>
<path d="M405.311 29.8575V13.5144H399.119V10.335H414.96V13.5144H408.769V29.8575H405.311Z" fill="#20424F"/>
<path d="M389.916 30.1363C386.811 30.1363 384.096 29.0951 381.772 27.0127L383.836 24.5584C385.788 26.2503 387.843 27.0963 389.999 27.0963C391.059 27.0963 391.896 26.8732 392.509 26.427C393.142 25.9622 393.458 25.3486 393.458 24.5863C393.458 23.8612 393.16 23.2848 392.565 22.8571C391.97 22.4109 390.799 21.9833 389.051 21.5742C386.783 21.035 385.128 20.3564 384.087 19.5383C383.064 18.7016 382.553 17.428 382.553 15.7175C382.553 14.0441 383.176 12.6868 384.421 11.6456C385.667 10.5858 387.266 10.0559 389.218 10.0559C391.896 10.0559 394.257 10.874 396.302 12.5102L394.462 15.1039C392.658 13.7652 390.892 13.0959 389.163 13.0959C388.177 13.0959 387.396 13.319 386.82 13.7652C386.262 14.2114 385.983 14.7785 385.983 15.4664C385.983 16.2288 386.29 16.8237 386.904 17.2514C387.536 17.6604 388.772 18.088 390.613 18.5343C392.77 19.0549 394.35 19.7521 395.354 20.626C396.377 21.4999 396.888 22.727 396.888 24.3074C396.888 26.1109 396.247 27.5333 394.964 28.5745C393.681 29.6157 391.998 30.1363 389.916 30.1363Z" fill="#20424F"/>
<path d="M359.675 29.8573L368.265 10.1953H371.445L380.035 29.8573H376.409L374.429 25.144H365.197L363.189 29.8573H359.675ZM366.452 22.1041H373.174L369.799 14.2951L366.452 22.1041Z" fill="#20424F"/>
<path d="M349.822 30.1919C346.996 30.1919 344.635 29.2251 342.738 27.2914C340.842 25.3392 339.894 22.9407 339.894 20.096C339.894 17.2698 340.842 14.8806 342.738 12.9284C344.635 10.9761 347.043 10 349.962 10C351.654 10 353.085 10.2603 354.257 10.7809C355.447 11.3015 356.562 12.0545 357.603 13.0399L355.4 15.5779C353.652 13.9603 351.83 13.1515 349.934 13.1515C348.074 13.1515 346.531 13.8208 345.304 15.1595C344.096 16.4982 343.491 18.1437 343.491 20.096C343.491 22.0296 344.105 23.6751 345.332 25.0324C346.559 26.3711 348.093 27.0404 349.934 27.0404C351.049 27.0404 352.035 26.8359 352.89 26.4268C353.745 25.9992 354.628 25.3577 355.539 24.5025L357.743 26.7336C356.646 27.8864 355.484 28.751 354.257 29.3273C353.029 29.9037 351.551 30.1919 349.822 30.1919Z" fill="#20424F"/>
<path d="M318.178 29.8575V22.1601L310.425 10.335H314.469L319.935 18.9807L325.457 10.335H329.39L321.636 22.0764V29.8575H318.178Z" fill="#20424F"/>
<path d="M293.15 29.8575V10.335H296.58V20.152L305.867 10.335H310.079L301.963 18.7297L310.441 29.8575H306.286L299.62 21.0724L296.58 24.196V29.8575H293.15Z" fill="#20424F"/>
<path d="M282.144 30.1363C279.039 30.1363 276.324 29.0951 274 27.0127L276.064 24.5584C278.016 26.2503 280.071 27.0963 282.227 27.0963C283.287 27.0963 284.124 26.8732 284.737 26.427C285.37 25.9622 285.686 25.3486 285.686 24.5863C285.686 23.8612 285.388 23.2848 284.793 22.8571C284.198 22.4109 283.027 21.9833 281.279 21.5742C279.011 21.035 277.356 20.3564 276.315 19.5383C275.292 18.7016 274.781 17.428 274.781 15.7175C274.781 14.0441 275.404 12.6868 276.649 11.6456C277.895 10.5858 279.494 10.0559 281.446 10.0559C284.124 10.0559 286.485 10.874 288.53 12.5102L286.69 15.1039C284.886 13.7652 283.12 13.0959 281.391 13.0959C280.405 13.0959 279.624 13.319 279.048 13.7652C278.49 14.2114 278.211 14.7785 278.211 15.4664C278.211 16.2288 278.518 16.8237 279.132 17.2514C279.764 17.6604 281 18.088 282.841 18.5343C284.998 19.0549 286.578 19.7521 287.582 20.626C288.605 21.4999 289.116 22.727 289.116 24.3074C289.116 26.1109 288.475 27.5333 287.192 28.5745C285.909 29.6157 284.226 30.1363 282.144 30.1363Z" fill="#20424F"/>
</svg>
