<svg xmlns="http://www.w3.org/2000/svg" viewBox="0 0 220 420" width="220" height="420" role="img" aria-label="European Property Awards Winner 2024-2025">
  <path fill="#111111" d="M18 0h184c6 0 10 4 10 10v330L110 420 8 340V10C8 4 12 0 18 0z"/>
  <!-- crest simplified -->
  <g fill="none" stroke="#FFFFFF" stroke-width="1.2" transform="translate(110,58)">
    <path d="M-18-22v20c0 14 18 22 18 22s18-8 18-22v-20z"/>
    <circle cx="0" cy="-28" r="7"/>
    <path d="M-28-8c-6 4-10 10-8 16M28-8c6 4 10 10 8 16"/>
    <path d="M-22 18h44"/>
  </g>
  <text x="110" y="118" text-anchor="middle" fill="#FFFFFF" font-family="Inter, Helvetica, Arial, sans-serif" font-size="11" font-weight="700" letter-spacing="1.2">EUROPEAN PROPERTY</text>
  <text x="110" y="134" text-anchor="middle" fill="#FFFFFF" font-family="Inter, Helvetica, Arial, sans-serif" font-size="11" font-weight="700" letter-spacing="1.2">AWARDS</text>
  <text x="110" y="168" text-anchor="middle" fill="#FFFFFF" font-family="Inter, Helvetica, Arial, sans-serif" font-size="13" font-weight="700" letter-spacing="1.4">AWARD WINNER</text>
  <text x="110" y="198" text-anchor="middle" fill="#FFFFFF" font-family="Inter, Helvetica, Arial, sans-serif" font-size="9.5" font-weight="600" letter-spacing="1.1">MIXED USE DEVELOPMENT</text>
  <text x="110" y="236" text-anchor="middle" fill="#FFFFFF" font-family="Inter, Helvetica, Arial, sans-serif" font-size="8.5" font-weight="600" letter-spacing="0.6">VR SHEKVETILI FOREST-BEACH</text>
  <text x="110" y="250" text-anchor="middle" fill="#FFFFFF" font-family="Inter, Helvetica, Arial, sans-serif" font-size="8.5" font-weight="600" letter-spacing="0.6">BY PARAGRAPH</text>
  <text x="110" y="300" text-anchor="middle" fill="#FFFFFF" font-family="Inter, Helvetica, Arial, sans-serif" font-size="22" font-weight="700" letter-spacing="1">2024-2025</text>
</svg>
